<svg width="36" height="36" viewBox="0 0 36 36" fill="none" xmlns="http://www.w3.org/2000/svg">
<path d="M18.0171 7.00781L14.7905 13.5464L7.57178 14.5957L12.7944 19.6885L11.5605 26.8765L18.0171 23.4824L24.4736 26.873L23.2397 19.6851L28.4624 14.5957L21.2437 13.5464L18.0171 7.00781Z" fill="#001EB9"/>
<path d="M31.5557 12.5586L22.8774 11.2974L18.998 3.43263C18.8921 3.2173 18.7178 3.04298 18.5024 2.93702C17.9624 2.67042 17.3061 2.89259 17.0361 3.43263L13.1567 11.2974L4.47851 12.5586C4.23925 12.5928 4.0205 12.7056 3.85302 12.8765C3.65055 13.0846 3.53898 13.3646 3.54282 13.6549C3.54667 13.9452 3.66562 14.2221 3.87353 14.4248L10.1523 20.5464L8.66894 29.1904C8.63415 29.3915 8.65641 29.5983 8.73317 29.7874C8.80994 29.9765 8.93814 30.1403 9.10326 30.2602C9.26837 30.3801 9.46378 30.4514 9.66733 30.4659C9.87088 30.4804 10.0744 30.4376 10.2549 30.3423L18.0171 26.2612L25.7793 30.3423C25.9912 30.4551 26.2373 30.4927 26.4731 30.4517C27.0679 30.3491 27.4678 29.7852 27.3652 29.1904L25.8818 20.5464L32.1606 14.4248C32.3315 14.2573 32.4443 14.0386 32.4785 13.7993C32.5708 13.2012 32.1538 12.6475 31.5557 12.5586ZM23.2397 19.6851L24.4736 26.8731L18.0171 23.4824L11.5605 26.8765L12.7944 19.6885L7.57177 14.5957L14.7905 13.5464L18.0171 7.00782L21.2436 13.5464L28.4624 14.5957L23.2397 19.6851Z" fill="#001EB9"/>
</svg>
